<?xml version="1.0" standalone="no"?>
<!DOCTYPE svg PUBLIC "-//W3C//DTD SVG 20010904//EN"
 "http://www.w3.org/TR/2001/REC-SVG-20010904/DTD/svg10.dtd">
<svg version="1.0" xmlns="http://www.w3.org/2000/svg"
 width="700.000000pt" height="700.000000pt" viewBox="0 0 700.000000 700.000000"
 preserveAspectRatio="xMidYMid meet">
<metadata>
Created by potrace 1.11, written by Peter Selinger 2001-2013
</metadata>
<g transform="translate(0.000000,700.000000) scale(0.100000,-0.100000)"
fill="#000000" stroke="none">
<path d="M1405 6123 c-259 -36 -459 -212 -516 -453 -17 -71 -21 -1288 -4
-1293 5 -2 136 -3 290 -3 l280 1 3 583 2 582 583 0 582 0 0 293 0 292 -600 0
c-330 0 -609 -1 -620 -2z"/>
<path d="M4382 6120 c-4 -3 -8 -133 -7 -290 l0 -285 582 -3 583 -2 2 -583 3
-582 287 0 c185 0 289 3 291 10 2 5 3 285 2 620 -1 465 -4 623 -14 665 -51
214 -227 390 -441 441 -42 10 -199 13 -668 14 -337 0 -616 -2 -620 -5z"/>
<path d="M881 2620 c-4 -3 -6 -279 -6 -615 1 -453 5 -625 14 -670 15 -69 67
-180 113 -240 69 -90 208 -177 328 -206 70 -17 1288 -21 1293 -4 2 5 3 136 3
290 l-1 280 -582 3 -583 2 -2 583 -3 582 -283 0 c-156 0 -287 -2 -291 -5z"/>
<path d="M5540 2043 l0 -583 -582 -2 -583 -3 0 -287 c0 -184 3 -289 10 -291
19 -6 1230 0 1263 7 174 35 339 161 414 316 63 131 62 123 62 805 l1 620 -292
0 -293 0 0 -582z"/>
</g>
</svg>
